<svg width="34" height="41" viewBox="0 0 34 41" fill="none" xmlns="http://www.w3.org/2000/svg">
<path d="M17.6668 7.36281C17.1155 7.33022 16.6667 6.88562 16.6667 6.33333V1.41421C16.6667 0.523309 15.5895 0.0771418 14.9596 0.707107L6.95711 8.70956C6.56658 9.10008 6.56658 9.73325 6.95711 10.1238L14.9596 18.1262C15.5895 18.7562 16.6667 18.31 16.6667 17.4191V12.5C16.6667 11.9477 17.116 11.4958 17.6665 11.5395C24.0961 12.0501 29.1667 17.4407 29.1667 24C29.1667 30.8958 23.5625 36.5 16.6667 36.5C10.1074 36.5 4.71672 31.4295 4.20621 24.9998C4.16249 24.4493 3.71895 24 3.16667 24H1C0.447716 24 -0.00311438 24.4488 0.0294778 25.0001C0.546288 33.7424 7.79413 40.6667 16.6667 40.6667C25.875 40.6667 33.3333 33.2083 33.3333 24C33.3333 15.1275 26.409 7.87962 17.6668 7.36281Z" fill="white"/>
</svg>
