<svg width="29" height="29" viewBox="0 0 29 29" fill="none" xmlns="http://www.w3.org/2000/svg">
<path d="M27.6979 4.40625C28.5091 3.59508 28.5091 2.27992 27.6979 1.46875V1.46875C26.8868 0.657582 25.5716 0.657582 24.7604 1.46875L16.7047 9.52451C15.5331 10.6961 13.6336 10.6961 12.462 9.52451L4.40625 1.46875C3.59508 0.657581 2.27992 0.657582 1.46875 1.46875V1.46875C0.657582 2.27992 0.657582 3.59508 1.46875 4.40625L9.52451 12.462C10.6961 13.6336 10.6961 15.5331 9.52451 16.7047L1.46875 24.7604C0.657581 25.5716 0.657582 26.8868 1.46875 27.6979V27.6979C2.27992 28.5091 3.59508 28.5091 4.40625 27.6979L12.462 19.6422C13.6336 18.4706 15.5331 18.4706 16.7047 19.6422L24.7604 27.6979C25.5716 28.5091 26.8868 28.5091 27.6979 27.6979V27.6979C28.5091 26.8868 28.5091 25.5716 27.6979 24.7604L19.6422 16.7047C18.4706 15.5331 18.4706 13.6336 19.6422 12.462L27.6979 4.40625Z" fill="white"/>
</svg>
