<svg width="81" height="80" viewBox="0 0 81 80" fill="none" xmlns="http://www.w3.org/2000/svg">
<path fill-rule="evenodd" clip-rule="evenodd" d="M14.5239 2.05284C11.5137 -0.792564 6.76139 -0.6642 3.90923 2.33954C1.05707 5.34329 1.18515 10.085 4.19529 12.9304L23.0206 30.7253C27.0405 34.5252 27.2118 40.8668 23.4029 44.8782L2.05807 67.3574C-0.794084 70.3612 -0.666008 75.1028 2.34414 77.9482C5.35429 80.7936 10.1066 80.6653 12.9588 77.6615L34.3345 55.1497C38.1314 51.1511 44.4485 50.9804 48.4556 54.7683L67.33 72.6096C70.3401 75.455 75.0925 75.3267 77.9446 72.3229C80.7968 69.3192 80.6687 64.5775 77.6586 61.7321L58.8169 43.9216C54.7969 40.1217 54.6256 33.7801 58.4346 29.7688L72.7713 14.6701C75.6234 11.6663 75.4954 6.92468 72.4852 4.07928C69.4751 1.23388 64.7227 1.36224 61.8706 4.36599L47.5029 19.4973C43.7061 23.4959 37.389 23.6665 33.3818 19.8787L14.5239 2.05284Z" fill="#F2ECEC"/>
</svg>
